<svg xmlns="http://www.w3.org/2000/svg" viewBox="0 0 48 48" width="48px" height="48px">
  <path fill="#3F51B5" d="M45,35c0,2.209-1.791,4-4,4H7c-2.209,0-4-1.791-4-4V13c0-2.209,1.791-4,4-4h34c2.209,0,4,1.791,4,4V35z"/>
  <path fill="#FFC107" d="M30,24c0,3.314-2.686,6-6,6s-6-2.686-6-6s2.686-6,6-6S30,20.686,30,24z"/>
  <path fill="#FF3D00" d="M22.001,24c0-2.829,1.307-5.35,3.349-6.997C23.952,15.763,22,18.318,22,21.5c0,5.247,4.253,9.5,9.5,9.5c1.414,0,2.758-0.31,3.965-0.864C32.759,32.624,28.371,33.5,24,33.5C17.649,33.5,12.5,29.351,12.5,24S17.649,14.5,24,14.5c1.048,0,2.058,0.132,3.027,0.369C25.084,14.323,23.062,14,21,14c-5.247,0-9.5,4.253-9.5,9.5s4.253,9.5,9.5,9.5c4.63,0,8.487-3.315,9.332-7.7C29.568,27.778,27.704,29,25.5,29C23.567,29,22.001,26.761,22.001,24z"/>
</svg>
